<svg id="visual" viewBox="0 0 900 600" width="900" height="600" xmlns="http://www.w3.org/2000/svg" xmlns:xlink="http://www.w3.org/1999/xlink" version="1.1"><rect x="0" y="0" width="900" height="600" fill="#fff"></rect><defs><linearGradient id="grad1_0" x1="33.3%" y1="0%" x2="100%" y2="100%"><stop offset="20%" stop-color="#0b79f8" stop-opacity="1"></stop><stop offset="80%" stop-color="#0b79f8" stop-opacity="1"></stop></linearGradient></defs><defs><linearGradient id="grad1_1" x1="33.3%" y1="0%" x2="100%" y2="100%"><stop offset="20%" stop-color="#0b79f8" stop-opacity="1"></stop><stop offset="80%" stop-color="#aab9fd" stop-opacity="1"></stop></linearGradient></defs><defs><linearGradient id="grad1_2" x1="33.3%" y1="0%" x2="100%" y2="100%"><stop offset="20%" stop-color="#ffffff" stop-opacity="1"></stop><stop offset="80%" stop-color="#aab9fd" stop-opacity="1"></stop></linearGradient></defs><defs><linearGradient id="grad2_0" x1="0%" y1="0%" x2="66.7%" y2="100%"><stop offset="20%" stop-color="#0b79f8" stop-opacity="1"></stop><stop offset="80%" stop-color="#0b79f8" stop-opacity="1"></stop></linearGradient></defs><defs><linearGradient id="grad2_1" x1="0%" y1="0%" x2="66.7%" y2="100%"><stop offset="20%" stop-color="#aab9fd" stop-opacity="1"></stop><stop offset="80%" stop-color="#0b79f8" stop-opacity="1"></stop></linearGradient></defs><defs><linearGradient id="grad2_2" x1="0%" y1="0%" x2="66.7%" y2="100%"><stop offset="20%" stop-color="#aab9fd" stop-opacity="1"></stop><stop offset="80%" stop-color="#ffffff" stop-opacity="1"></stop></linearGradient></defs><g transform="translate(900, 0)"><path d="M0 258C-48.2 254.7 -96.5 251.5 -132 228.6C-167.5 205.8 -190.4 163.4 -211.3 122C-232.3 80.6 -251.3 40.3 -270.4 0L0 0Z" fill="#d6dbfe"></path><path d="M0 172C-32.2 169.8 -64.3 167.6 -88 152.4C-111.7 137.2 -126.9 108.9 -140.9 81.3C-154.8 53.8 -167.6 26.9 -180.3 0L0 0Z" fill="#7598fb"></path><path d="M0 86C-16.1 84.9 -32.2 83.8 -44 76.2C-55.8 68.6 -63.5 54.5 -70.4 40.7C-77.4 26.9 -83.8 13.4 -90.1 0L0 0Z" fill="#0b79f8"></path></g><g transform="translate(0, 600)"><path d="M0 -263C39.2 -246.2 78.3 -229.3 121.5 -210.4C164.7 -191.6 211.9 -170.6 234.2 -135.2C256.4 -99.8 253.7 -49.9 251 0L0 0Z" fill="#d6dbfe"></path><path d="M0 -175.3C26.1 -164.1 52.2 -152.9 81 -140.3C109.8 -127.7 141.3 -113.7 156.1 -90.1C171 -66.5 169.1 -33.3 167.3 0L0 0Z" fill="#7598fb"></path><path d="M0 -87.7C13.1 -82.1 26.1 -76.4 40.5 -70.1C54.9 -63.9 70.6 -56.9 78.1 -45.1C85.5 -33.3 84.6 -16.6 83.7 0L0 0Z" fill="#0b79f8"></path></g></svg>